<svg width="40" height="40" viewBox="0 0 40 40" fill="none" xmlns="http://www.w3.org/2000/svg">
<path d="M22.8771 26.0214L21.5857 25.3167C21.0191 25.0081 20.6678 24.4154 20.6678 23.7701V21.5648C21.1138 20.9801 22.3918 19.1574 23.0025 16.7394C23.6325 16.2341 24.0011 15.4781 24.0011 14.6668V12C24.0011 11.358 23.7611 10.7354 23.3345 10.25V6.70339C23.3718 6.33737 23.5179 4.15408 21.9392 2.35337C20.5704 0.791331 18.3478 0 15.3344 0C12.3204 0 10.0984 0.791331 8.72906 2.35337C7.15038 4.15408 7.29639 6.33737 7.33436 6.70339V10.25C6.90702 10.7354 6.66772 11.358 6.66772 12V14.6667C6.66772 15.478 7.03569 16.2341 7.66569 16.7394C8.2764 19.1573 9.55437 20.9801 10.001 21.5647V23.77C10.001 24.4153 9.64898 25.008 9.08234 25.3167L3.13497 28.5614C1.20161 29.6161 0.000976562 31.6387 0.000976562 33.8408V36.6668C0.000976562 37.0348 0.298946 37.3334 0.66762 37.3334H23.353C22.0917 35.6594 21.3343 33.5861 21.3343 31.3334C21.3344 29.3808 21.905 27.5628 22.8771 26.0214Z" fill="#7E9AE4"/>
<path d="M31.3334 22.6667C26.5547 22.6667 22.6667 26.5547 22.6667 31.3334C22.6667 36.1121 26.5547 40.0001 31.3334 40.0001C36.1121 40.0001 40.0001 36.1121 40.0001 31.3334C40.0001 26.5547 36.1121 22.6667 31.3334 22.6667ZM35.3334 32.0001H32.0001V35.3334C32.0001 35.7014 31.7014 36.0001 31.3334 36.0001C30.9655 36.0001 30.6668 35.7014 30.6668 35.3334V32.0001H27.3334C26.9654 32.0001 26.6668 31.7014 26.6668 31.3334C26.6668 30.9655 26.9654 30.6668 27.3334 30.6668H30.6668V27.3334C30.6668 26.9654 30.9655 26.6668 31.3334 26.6668C31.7014 26.6668 32.0001 26.9654 32.0001 27.3334V30.6668H35.3334C35.7014 30.6668 36.0001 30.9655 36.0001 31.3334C36.0001 31.7014 35.7014 32.0001 35.3334 32.0001Z" fill="#2DC82D"/>
</svg>
