<svg width="42" height="42" viewBox="0 0 42 42" fill="none" xmlns="http://www.w3.org/2000/svg">
<path d="M28.7397 11.55C31.6392 11.55 33.9897 9.19954 33.9897 6.30005C33.9897 3.40055 31.6392 1.05005 28.7397 1.05005C25.8402 1.05005 23.4897 3.40055 23.4897 6.30005C23.4897 9.19954 25.8402 11.55 28.7397 11.55Z" fill="#7E9AE4"/>
<path d="M14.3022 14.175C17.2017 14.175 19.5522 11.8245 19.5522 8.92505C19.5522 6.02555 17.2017 3.67505 14.3022 3.67505C11.4027 3.67505 9.05215 6.02555 9.05215 8.92505C9.05215 11.8245 11.4027 14.175 14.3022 14.175Z" fill="#7E9AE4"/>
<path d="M23.6325 21.1386C21.6347 17.5848 18.199 15.4875 14.3019 15.4875C11.2749 15.4875 8.48276 16.758 6.4406 19.0649C4.39047 21.3806 3.22907 24.6189 3.14999 28.218C4.47455 28.8924 9.43063 31.2375 14.3019 31.2375C15.7274 31.231 17.1485 31.0773 18.5425 30.7788C17.9845 28.8257 18.2024 26.7325 19.1509 24.9362C20.0993 23.1399 21.7049 21.7793 23.6325 21.1386Z" fill="#7E9AE4"/>
<path d="M26.1146 22.05C24.8167 22.05 23.5479 22.4349 22.4687 23.156C21.3895 23.8771 20.5484 24.902 20.0517 26.1012C19.555 27.3003 19.425 28.6198 19.6783 29.8928C19.9315 31.1658 20.5565 32.3351 21.4743 33.2529C22.392 34.1707 23.5614 34.7957 24.8344 35.0489C26.1074 35.3021 27.4269 35.1722 28.626 34.6755C29.8251 34.1788 30.8501 33.3377 31.5712 32.2585C32.2923 31.1793 32.6771 29.9105 32.6771 28.6125C32.6752 26.8727 31.9831 25.2046 30.7528 23.9743C29.5226 22.7441 27.8545 22.052 26.1146 22.05V22.05ZM29.3959 29.2688H26.7709V31.8938C26.7709 32.0678 26.7018 32.2348 26.5787 32.3578C26.4556 32.4809 26.2887 32.55 26.1146 32.55C25.9406 32.55 25.7737 32.4809 25.6506 32.3578C25.5275 32.2348 25.4584 32.0678 25.4584 31.8938V29.2688H22.8334C22.6594 29.2688 22.4924 29.1996 22.3694 29.0766C22.2463 28.9535 22.1772 28.7866 22.1772 28.6125C22.1772 28.4385 22.2463 28.2716 22.3694 28.1485C22.4924 28.0254 22.6594 27.9563 22.8334 27.9563H25.4584V25.3313C25.4584 25.1572 25.5275 24.9903 25.6506 24.8673C25.7737 24.7442 25.9406 24.675 26.1146 24.675C26.2887 24.675 26.4556 24.7442 26.5787 24.8673C26.7018 24.9903 26.7709 25.1572 26.7709 25.3313V27.9563H29.3959C29.5699 27.9563 29.7369 28.0254 29.8599 28.1485C29.983 28.2716 30.0521 28.4385 30.0521 28.6125C30.0521 28.7866 29.983 28.9535 29.8599 29.0766C29.7369 29.1996 29.5699 29.2688 29.3959 29.2688Z" fill="#2DC82D"/>
<path d="M28.7397 12.8625C25.7635 12.8625 23.0491 14.0723 21.02 16.2839C22.6145 17.4039 23.9625 18.9408 24.9553 20.8231C26.0178 20.6652 27.1014 20.7263 28.1395 21.0027C29.1775 21.2791 30.148 21.7648 30.9914 22.4301C31.8348 23.0955 32.5331 23.9263 33.0435 24.8715C33.554 25.8166 33.8656 26.8563 33.9594 27.9264C36.0239 27.3983 38.0162 26.62 39.892 25.609C39.816 22.0032 38.6542 18.7594 36.601 16.4398C34.5588 14.133 31.7667 12.8625 28.7397 12.8625V12.8625Z" fill="#7E9AE4"/>
</svg>
