<svg width="42" height="42" viewBox="0 0 42 42" fill="none" xmlns="http://www.w3.org/2000/svg">
<path d="M20.9559 0H4.04412C1.80882 0 0 1.81571 0 4.05952V26.9405C0 29.1843 1.80882 31 4.04412 31H13.7353C12.9412 29.3171 12.5 27.4424 12.5 25.4643C12.5 23.7667 12.8235 22.1429 13.4265 20.6519C13.3676 20.6667 13.3088 20.6667 13.2353 20.6667H5.88235C5.07353 20.6667 4.41176 20.0024 4.41176 19.1905C4.41176 18.3786 5.07353 17.7143 5.88235 17.7143H13.2353C13.7941 17.7143 14.2941 18.039 14.5294 18.5114C15.4853 17.0205 16.7206 15.751 18.1765 14.7619H5.88235C5.07353 14.7619 4.41176 14.0976 4.41176 13.2857C4.41176 12.4738 5.07353 11.8095 5.88235 11.8095H19.1176C19.9265 11.8095 20.5882 12.4738 20.5882 13.2857C20.5882 13.3595 20.5882 13.4186 20.5735 13.4776C21.9412 12.9167 23.4412 12.5919 25 12.5624V4.05952C25 1.81571 23.1912 0 20.9559 0ZM11.7647 8.85714H5.88235C5.07353 8.85714 4.41176 8.19286 4.41176 7.38095C4.41176 6.56905 5.07353 5.90476 5.88235 5.90476H11.7647C12.5735 5.90476 13.2353 6.56905 13.2353 7.38095C13.2353 8.19286 12.5735 8.85714 11.7647 8.85714Z" fill="#7E9AE4"/>
<path d="M25 15C19.4859 15 15 19.4859 15 25C15 30.5141 19.4859 35 25 35C30.5141 35 35 30.5141 35 25C35 19.4859 30.5141 15 25 15ZM29.0741 26.4815H26.4815V29.0741C26.4815 29.8919 25.8178 30.5556 25 30.5556C24.1822 30.5556 23.5185 29.8919 23.5185 29.0741V26.4815H20.9259C20.1081 26.4815 19.4444 25.8178 19.4444 25C19.4444 24.1822 20.1081 23.5185 20.9259 23.5185H23.5185V20.9259C23.5185 20.1081 24.1822 19.4444 25 19.4444C25.8178 19.4444 26.4815 20.1081 26.4815 20.9259V23.5185H29.0741C29.8919 23.5185 30.5556 24.1822 30.5556 25C30.5556 25.8178 29.8919 26.4815 29.0741 26.4815Z" fill="#2DC82D"/>
</svg>
