<svg width="40" height="40" viewBox="0 0 40 40" fill="none" xmlns="http://www.w3.org/2000/svg">
<path d="M35.6058 28.1885C33.0856 26.0583 31.6406 22.9449 31.6406 19.6466V15C31.6406 9.13513 27.2839 4.28009 21.6406 3.4668V1.66656C21.6406 0.744934 20.8939 0 19.9741 0C19.054 0 18.3072 0.744934 18.3072 1.66656V3.4668C12.6624 4.28009 8.30719 9.13513 8.30719 15V19.6466C8.30719 22.9449 6.86218 26.0583 4.32739 28.2016C3.67889 28.7567 3.30719 29.5633 3.30719 30.4166C3.30719 32.0251 4.61548 33.3334 6.22406 33.3334H33.7241C35.3323 33.3334 36.6406 32.0251 36.6406 30.4166C36.6406 29.5633 36.2689 28.7567 35.6058 28.1885Z" fill="#7E9AE4"/>
<path d="M19.9741 40C22.9922 40 25.5173 37.8482 26.0974 35H13.8507C14.4305 37.8482 16.9556 40 19.9741 40Z" fill="#7E9AE4"/>
</svg>
