<svg width="82" height="82" viewBox="0 0 82 82" fill="none" xmlns="http://www.w3.org/2000/svg">
<path d="M78.4146 28.8556H67.3632V17.7289L48.4527 0H3.58545V82H67.3632V70.4767H78.4146V28.8556ZM71.5812 63.6434H23.7479V35.6889H71.5812V63.6434Z" fill="white"/>
<path d="M38.9254 53.5144H31.669V41.7083H28.9031V55.9398H38.9254V53.5144Z" fill="white"/>
<path d="M40.7592 53.8052C41.3672 54.4801 42.0954 55.0213 42.9443 55.4288C43.7928 55.8365 44.7383 56.0402 45.7804 56.0402C46.7826 56.0402 47.7112 55.8431 48.5665 55.4488C49.4216 55.0548 50.1564 54.5268 50.7714 53.8653C51.386 53.2039 51.8673 52.4422 52.2146 51.5803C52.562 50.7184 52.7358 49.8132 52.7358 48.8642C52.7358 47.9691 52.5686 47.0871 52.2349 46.2184C51.9005 45.3499 51.4329 44.5747 50.8318 43.8932C50.2302 43.2117 49.5054 42.6605 48.657 42.2396C47.808 41.8186 46.8694 41.6082 45.8407 41.6082C44.8385 41.6082 43.9094 41.8054 43.0546 42.1995C42.1992 42.594 41.461 43.1252 40.8396 43.793C40.218 44.4615 39.7304 45.2296 39.3764 46.0981C39.022 46.9669 38.8452 47.8755 38.8452 48.8242C38.8452 49.7332 39.0122 50.6218 39.3463 51.4901C39.68 52.3588 40.1511 53.1305 40.7592 53.8052ZM41.922 47.0903C42.1024 46.5225 42.366 46.0147 42.7138 45.5669C43.0612 45.1193 43.4958 44.7585 44.0169 44.4845C44.5381 44.2107 45.1326 44.0736 45.8009 44.0736C46.4421 44.0736 47.0199 44.2039 47.5345 44.4645C48.0488 44.7251 48.4832 45.0758 48.8376 45.5168C49.1916 45.9578 49.4656 46.4657 49.6592 47.0402C49.8528 47.6149 49.9498 48.2096 49.9498 48.8239C49.9498 49.4123 49.8594 49.9899 49.679 50.5578C49.4986 51.1258 49.2312 51.637 48.8772 52.0912C48.5228 52.5456 48.0884 52.9098 47.5741 53.1836C47.0596 53.4576 46.4685 53.5945 45.8004 53.5945C45.1453 53.5945 44.5608 53.461 44.0465 53.1936C43.5317 52.9264 43.0976 52.5722 42.7436 52.1313C42.3892 51.6903 42.1188 51.1826 41.9318 50.6079C41.7446 50.0337 41.6512 49.4387 41.6512 48.8239C41.6512 48.2363 41.7416 47.6584 41.922 47.0903Z" fill="white"/>
<path d="M55.993 53.9355C56.6009 54.5903 57.3161 55.1049 58.1377 55.4789C58.9596 55.8531 59.8381 56.0402 60.7736 56.0402C62.2835 56.0402 63.6062 55.4723 64.7424 54.3364V55.9399H67.0274V48.6237H61.876V50.6482H64.7424V51.6504C63.6331 52.9467 62.3903 53.5947 61.0141 53.5947C60.4128 53.5947 59.8547 53.4713 59.3404 53.2239C58.8259 52.9768 58.3815 52.6394 58.0074 52.2117C57.633 51.7841 57.3389 51.2796 57.1255 50.6983C56.9116 50.117 56.8048 49.4927 56.8048 48.8242C56.8048 48.1827 56.9016 47.5748 57.0954 47.0001C57.289 46.4259 57.5631 45.9177 57.917 45.4767C58.271 45.0358 58.6988 44.6884 59.1999 44.4344C59.701 44.1807 60.2522 44.0536 60.8538 44.0536C61.6154 44.0536 62.3202 44.2408 62.9682 44.6148C63.6162 44.9893 64.121 45.5305 64.4818 46.2384L66.5464 44.715C66.0655 43.7663 65.3469 43.0113 64.3916 42.45C63.4361 41.8888 62.2901 41.6082 60.954 41.6082C59.965 41.6082 59.0498 41.7986 58.2079 42.1794C57.366 42.5603 56.6344 43.0748 56.0128 43.7228C55.3914 44.3713 54.9035 45.126 54.5495 45.9879C54.1954 46.8498 54.0184 47.7686 54.0184 48.744C54.0184 49.7731 54.1954 50.7318 54.5495 51.6204C54.9037 52.5091 55.3848 53.2809 55.993 53.9355Z" fill="white"/>
</svg>
