<svg width="29" height="42" viewBox="0 0 29 42" fill="none" xmlns="http://www.w3.org/2000/svg">
<g clip-path="url(#clip0)">
<path d="M28.9994 31.124V31.2329C28.9998 31.2823 28.9958 31.3317 28.9875 31.3804C28.9291 31.7198 28.79 32.04 28.5819 32.3139C28.5819 32.3139 28.2863 32.6842 27.6477 33.1175L15.7255 41.6075C15.7255 41.6075 15.0864 42.0009 14.4881 42.0009C13.951 42.0009 13.3987 41.6835 13.2915 41.6191L13.2582 41.5973L1.35119 33.1167C0.712091 32.6833 0.416919 32.313 0.416919 32.313C0.20887 32.0391 0.0697601 31.7189 0.0113895 31.3795C0.00303161 31.3308 -0.000973086 31.2814 -0.000576925 31.232V1.78912C-0.000576925 1.786 0.000309291 0 2.04568 0C2.04568 0 2.1228 0.0031115 2.23803 0.01778C2.56225 0.0592834 2.87143 0.179685 3.13862 0.368491L14.4983 8.36551L25.8602 0.368491C26.1274 0.179621 26.4366 0.059213 26.7608 0.01778C26.8756 0.0031115 26.9532 0 26.9532 0C28.9985 0 28.9994 1.786 28.9994 1.78912V31.1262V31.124Z" fill="#849EEF"/>
<path d="M25.0329 5.85632V30.0816L14.5069 37.5492L3.98084 30.0816V18.4801L13.4654 25.1921C13.4654 25.1921 13.8412 25.4726 14.6567 25.4726C15.2634 25.4726 16.4796 24.8143 16.4796 23.7226V11.9015L25.0329 5.85632Z" fill="white"/>
<path d="M3.9804 5.85632V13.5462L12.5346 19.6358V11.9015L3.9804 5.85632Z" fill="white"/>
</g>
<defs>
<clipPath id="clip0">
<rect width="29" height="42" fill="white"/>
</clipPath>
</defs>
</svg>
