<svg width="29" height="42" viewBox="0 0 29 42" fill="none" xmlns="http://www.w3.org/2000/svg">
<path fill-rule="evenodd" clip-rule="evenodd" d="M25.0151 5.81797L16.4924 11.8447V23.3756C16.4924 25.0343 14.6283 26.003 13.2798 25.0452L4.00039 18.4567L4.01166 30.0764L14.5011 37.5573L25.0151 30.0759V5.81797ZM13.3749 38.3586C13.3743 38.3591 13.3739 38.3596 13.3733 38.3596L13.3749 38.3586ZM3.99557 13.5536L12.5076 19.5972V11.8447L3.98858 5.82069L3.99557 13.5536ZM14.5 8.36037L25.7906 0.37655C27.1397 -0.577448 29 0.391278 29 2.04836V31.0872C29 31.7499 28.6799 32.3716 28.1412 32.7551L15.6778 41.6237C14.9715 42.126 14.0264 42.1255 13.3206 41.622L0.885035 32.7541C0.347999 32.3706 0.028465 31.7504 0.0279281 31.0888L1.04547e-06 2.05054C-0.00161007 0.392367 1.85923 -0.57799 3.20934 0.377095L14.5 8.36037ZM14.4301 23.4121L14.4163 23.4317L14.4301 23.4121Z" fill="white"/>
</svg>
